# xmcd
#
# Track frame offsets:
#   150
#   16047
#   32680
#   46102
#   62980
#   76292
#   90147
#   106212
#   121435
#   137002
#
# Disc length: 2024 seconds
#
# Revision: 0
# Processed by: cddbd v1.5.1PL0 Copyright (c) Steve Scherf et al.
# Submitted via: uFREEDB ActiveX Control 1.5
#
DISCID=6e07e60a
DTITLE=Estilo Nativo - Viola Companheira
DYEAR=1900
DGENRE=Dance
TTITLE0=Rei dos Canoeiros
TTITLE1=Boi Marrom
TTITLE2=Viola Brasileira
TTITLE3=Viola Companheira
TTITLE4=Hoje não é nosso dia
TTITLE5=Preciso te Encontrar
TTITLE6=Porta do Mundo
TTITLE7=Chico Mineiro
TTITLE8=Rolinha Cabocla
TTITLE9=Colcha de Retalhos
EXTD=
EXTT0=
EXTT1=
EXTT2=
EXTT3=
EXTT4=
EXTT5=
EXTT6=
EXTT7=
EXTT8=
EXTT9=
PLAYORDER=
